<svg xmlns="http://www.w3.org/2000/svg" viewBox="0 0 30 32" width="30" height="32">
<path fill="#7360f2" d="M26.921 3.121c-0.795-0.734-4.008-3.066-11.166-3.098 0 0-8.44-0.509-12.555 3.265-2.29 2.291-3.096 5.643-3.181 9.799s-0.195 11.944 7.313 14.056h0.007l-0.005 3.222s-0.048 1.305 0.811 1.571c1.039 0.323 1.649-0.669 2.641-1.738 0.544-0.587 1.296-1.449 1.863-2.107 5.134 0.432 9.083-0.556 9.532-0.702 1.037-0.336 6.903-1.088 7.857-8.875 0.985-8.027-0.476-13.104-3.117-15.393zM27.791 17.938c-0.805 6.502-5.563 6.911-6.441 7.192-0.373 0.12-3.841 0.983-8.203 0.698 0 0-3.25 3.921-4.265 4.94-0.158 0.159-0.345 0.224-0.469 0.192-0.175-0.043-0.223-0.25-0.221-0.552 0.003-0.432 0.028-5.355 0.028-5.355s-0.004 0 0 0c-6.351-1.763-5.981-8.392-5.909-11.863s0.724-6.315 2.661-8.227c3.48-3.152 10.65-2.681 10.65-2.681 6.054 0.026 8.956 1.85 9.628 2.46 2.234 1.913 3.372 6.489 2.54 13.194z"/>
<path fill="none" stroke="#7360f2" stroke-linejoin="round" stroke-linecap="round" stroke-miterlimit="4" stroke-width="0.8096" d="M18.701 12.906q-0.118-2.381-2.419-2.501"/>
<path fill="none" stroke="#7360f2" stroke-linejoin="round" stroke-linecap="round" stroke-miterlimit="4" stroke-width="0.8096" d="M20.778 13.602q0.048-2.218-1.314-3.707c-0.912-0.996-2.175-1.544-3.796-1.663"/>
<path fill="none" stroke="#7360f2" stroke-linejoin="round" stroke-linecap="round" stroke-miterlimit="4" stroke-width="0.8096" d="M22.904 14.433q-0.029-3.85-2.3-6.064t-5.649-2.238"/>
<path fill="#7360f2" d="M16.362 18.327s0.569 0.048 0.875-0.329l0.597-0.751c0.288-0.373 0.983-0.61 1.664-0.231 0.585 0.335 1.069 0.648 1.537 0.984l-0.053-0.036c0.452 0.332 1.377 1.104 1.38 1.104 0.441 0.372 0.543 0.919 0.242 1.495 0 0.003-0.002 0.009-0.002 0.012-0.344 0.59-0.757 1.095-1.237 1.526l-0.006 0.005c-0.006 0.003-0.006 0.006-0.011 0.009q-0.642 0.537-1.262 0.61c-0.043 0.008-0.093 0.012-0.144 0.012-0.014 0-0.028-0-0.042-0.001l0.002 0c-0.005 0-0.011 0-0.016 0-0.186 0-0.365-0.030-0.532-0.086l0.012 0.003-0.013-0.020c-0.637-0.18-1.7-0.629-3.47-1.606-1.111-0.61-2.064-1.248-2.958-1.958l0.042 0.032c-0.479-0.38-0.907-0.761-1.312-1.164l-0.132-0.132c-0.015-0.014-0.029-0.029-0.044-0.044-0.402-0.404-0.783-0.832-1.139-1.28l-0.024-0.031c-0.678-0.851-1.315-1.804-1.872-2.809l-0.054-0.106c-0.977-1.771-1.426-2.833-1.606-3.471l-0.020-0.013c-0.052-0.155-0.082-0.334-0.082-0.519 0-0.006 0-0.012 0-0.019v0.001c-0.001-0.013-0.001-0.029-0.001-0.044 0-0.050 0.004-0.098 0.013-0.145l-0.001 0.005q0.077-0.619 0.611-1.263c0.003-0.005 0.006-0.005 0.009-0.011 0.436-0.486 0.941-0.899 1.501-1.227l0.029-0.016c0.003 0 0.009-0.003 0.012-0.003 0.576-0.3 1.123-0.198 1.494 0.24 0.003 0.003 0.774 0.928 1.104 1.38 0.3 0.415 0.613 0.9 0.903 1.401l0.045 0.085c0.379 0.68 0.142 1.377-0.231 1.664l-0.751 0.597c-0.379 0.306-0.329 0.875-0.329 0.875s1.113 4.213 5.272 5.274z"/>
</svg>